<svg width="1096.46" height="805.97" xmlns="http://www.w3.org/2000/svg" stroke="null" style="vector-effect: non-scaling-stroke;">

 <title stroke="null" style="vector-effect: non-scaling-stroke;">mobile marketing</title>
 <g stroke="null" class="currentLayer">
  <title stroke="null">Layer 1</title>
  <path stroke="null" class="selected" id="svg_1" opacity="0.1" fill="#00c3ff" d="m790.985916,149.019819c-95.307181,-2.985425 -186.078746,-30.703382 -272.756439,-61.035254s-172.530745,-63.941049 -265.614298,-80.00925c-59.773153,-10.336179 -128.205239,-11.795727 -176.418425,17.089874c-46.387143,27.863916 -61.378304,75.829669 -69.43346,120.372121c-6.06715,33.529584 -9.630863,68.797345 6.980164,100.177429c11.545238,21.786923 32.014487,40.097506 46.180979,61.035242c49.288192,72.605418 14.446287,162.141475 -38.950479,233.035243c-25.034337,33.250943 -54.118346,65.015812 -73.453687,100.389716s-28.274068,75.962352 -11.353803,112.066024c16.758274,35.825044 56.710128,62.68055 99.990072,81.601481c87.899974,38.399131 191.439031,49.398749 292.474665,55.621688c223.586065,13.786006 448.35021,7.815169 672.525307,1.84432c82.966732,-2.215842 166.28689,-4.458223 247.898822,-16.015111c45.326867,-6.421975 92.111622,-16.612208 125.00968,-41.132454c41.777897,-31.220862 52.130325,-84.095964 24.136052,-123.238126c-46.946747,-65.665975 -176.712949,-81.986266 -209.566834,-152.455447c-18.054173,-38.783916 0.485958,-81.999529 26.742563,-117.970519c56.312529,-77.18306 150.691966,-144.879104 155.654652,-233.101584c3.416451,-60.584115 -41.954602,-121.261124 -112.109642,-149.934411c-73.527318,-30.053231 -175.505411,-26.271698 -229.726831,23.472034c-55.885473,51.110387 -154.049516,70.81415 -238.209057,68.186985z"/>
 </g>
 <g stroke="null">
  <title stroke="null">Layer 2</title>
  <rect fill="none" y="0" x="0" height="100%" width="100%" id="backgroundrect"/>
 </g>
 <g stroke="null">
  <title stroke="null">background</title>
  <rect stroke="null" fill="none" id="canvas_background" height="602" width="802" y="-1" x="-1"/>
 </g>
</svg>